<?xml version="1.0" ?><!DOCTYPE svg  PUBLIC '-//W3C//DTD SVG 1.1//EN'  'http://www.w3.org/Graphics/SVG/1.1/DTD/svg11.dtd'><svg height="6.82666in" style="shape-rendering:geometricPrecision; text-rendering:geometricPrecision; image-rendering:optimizeQuality; fill-rule:evenodd; clip-rule:evenodd" viewBox="0 0 6.82666 6.82666" width="6.82666in" xml:space="preserve" xmlns="http://www.w3.org/2000/svg" xmlns:xlink="http://www.w3.org/1999/xlink"><defs><style type="text/css">
   <![CDATA[
    .fil1 {fill:none}
    .fil0 {fill:black}
   ]]>
  </style></defs><g id="Layer_x0020_1"><path class="fil0" d="M4.53842 1.87617l0.436547 0.756122c0.0779016,-0.0629606 0.129949,-0.148909 0.151906,-0.242114 0.0249173,-0.105772 0.0111811,-0.220831 -0.0473583,-0.32222 -0.0585787,-0.101461 -0.151291,-0.170898 -0.255228,-0.202161 -0.0918701,-0.0276417 -0.192417,-0.0255866 -0.285866,0.010374z"/><path class="fil0" d="M5.48371 3.67309l-1.59228 -2.7579c-0.104606,0.34337 -0.549327,1.56796 -1.75996,2.33643 -0.0533425,0.0338583 -0.109094,0.0673268 -0.16735,0.100303 -0.0070315,0.00398031 -0.0140945,0.00794882 -0.0211929,0.0119094l0.44598 0.772465c0.0815354,-0.0486929 0.163252,-0.0934409 0.244894,-0.134512 1.25351,-0.630591 2.50542,-0.408594 2.84991,-0.328697z"/><path class="fil0" d="M2.32093 4.17785l-0.447984 -0.775941c-0.0266575,0.0141496 -0.0537835,0.0281496 -0.081378,0.0419921 -0.0593504,0.0297677 -0.118843,0.0578425 -0.178386,0.0840512 -0.0576299,0.0253661 -0.11652,0.0496535 -0.176669,0.0727559 -0.100953,0.0934961 -0.140642,0.215724 -0.135051,0.338807 0.00412992,0.0908504 0.0327913,0.182346 0.079689,0.263575 0.0469646,0.0813425 0.111894,0.151965 0.188472,0.200941 0.103791,0.0663819 0.229618,0.0930551 0.361343,0.0521732 0.111161,-0.0899488 0.223768,-0.17128 0.33711,-0.244709 0.0176063,-0.0114055 0.0352244,-0.022622 0.0528543,-0.0336457z"/><path class="fil0" d="M2.63215 4.09221c-0.107283,0.0554685 -0.214374,0.117315 -0.32063,0.186157 -0.0865079,0.0560433 -0.172579,0.116783 -0.257878,0.182551l0.836449 1.44877 6.69291e-005 -3.93701e-005c0.0175315,0.0303661 0.0459488,0.0508189 0.0775984,0.0592992 0.0317087,0.00849213 0.0665472,0.00503543 0.0968543,-0.0124173l-3.93701e-005 -6.69291e-005 0.372299 -0.214949c0.0303661,-0.0175315 0.0508189,-0.0459488 0.0592992,-0.0775984 0.00849606,-0.0317126 0.00503543,-0.0665433 -0.0124173,-0.0968543l-6.69291e-005 3.93701e-005 -0.851535 -1.47489z"/></g><rect class="fil1" height="6.82666" width="6.82666"/></svg>